<svg width="256" height="256" xmlns="http://www.w3.org/2000/svg">

 <g>
  <title>Layer 1</title>
  <path stroke="null" id="svg_1" d="m239.68369,102.03666c-4.73643,-4.95856 -9.63536,-10.0866 -11.70701,-15.11433c-1.93614,-4.69686 -2.0349,-11.25101 -2.1394,-18.19139c-0.15963,-10.62264 -0.34102,-22.66229 -8.03454,-30.38663c-7.69408,-7.72438 -19.68758,-7.90649 -30.2692,-8.06674c-6.91201,-0.1049 -13.44046,-0.20406 -18.1189,-2.14782c-5.00802,-2.07981 -10.11595,-6.99803 -15.05506,-11.75368c-7.85138,-7.55951 -15.97028,-15.37608 -26.35901,-15.37608s-18.50763,7.81656 -26.35956,15.37604c-4.93969,4.75566 -10.04704,9.67387 -15.05506,11.75368c-4.67901,1.94376 -11.20747,2.04292 -18.11948,2.14782c-10.58162,0.16026 -22.57515,0.34236 -30.2692,8.06674c-7.69347,7.72438 -7.87491,19.76393 -8.03454,30.38778c-0.10452,6.93926 -0.20322,13.49338 -2.1388,18.19025c-2.07223,5.02774 -6.97058,10.15578 -11.70701,15.11433c-7.53045,7.88229 -15.31694,16.03315 -15.31694,26.46336c0,10.42903 7.78591,18.57991 15.31632,26.46333c4.73643,4.95856 9.63536,10.0866 11.70701,15.11433c1.93614,4.69686 2.0349,11.25101 2.1394,18.19139c0.15963,10.6227 0.34102,22.66229 8.03454,30.38663c7.69408,7.72438 19.68758,7.90649 30.2692,8.06674c6.91201,0.1049 13.44046,0.20406 18.1189,2.14782c5.00802,2.07981 10.11595,6.99803 15.05506,11.75368c7.85138,7.55951 15.97028,15.37608 26.35901,15.37608s18.50763,-7.81656 26.35956,-15.37604c4.93969,-4.75566 10.04704,-9.67387 15.05506,-11.75368c4.67901,-1.94376 11.20747,-2.04292 18.11948,-2.14782c10.58162,-0.16026 22.57515,-0.34236 30.2692,-8.06674c7.69347,-7.72438 7.87491,-19.76393 8.03454,-30.38778c0.10449,-6.93922 0.20326,-13.49337 2.13882,-18.19024c2.07223,-5.02774 6.97058,-10.15578 11.70701,-15.11433c7.53043,-7.8823 15.31692,-16.03316 15.31692,-26.46337c0,-10.42903 -7.78591,-18.57991 -15.31632,-26.46333zm-6.78971,46.38985c-5.33988,5.58919 -10.86124,11.36977 -13.61043,18.04036c-2.62232,6.36277 -2.73943,14.13899 -2.85254,21.65928c-0.14581,9.6854 -0.28365,18.8347 -5.28075,23.85206c-4.99711,5.01618 -14.11054,5.15455 -23.75853,5.30097c-7.49079,0.11414 -15.23647,0.23173 -21.57434,2.86377c-6.64444,2.76001 -12.40177,8.3031 -17.96962,13.66401c-6.80981,6.55644 -13.24123,12.7486 -19.84835,12.7486c-6.60654,0 -13.03796,-6.19216 -19.84777,-12.74862c-5.56727,-5.3609 -11.3246,-10.904 -17.96962,-13.66401c-6.33782,-2.63204 -14.08297,-2.74963 -21.57376,-2.86377c-9.64799,-0.14639 -18.76142,-0.28476 -23.75853,-5.30097l-0.00058,0c-4.99711,-5.01736 -5.13434,-14.16667 -5.28018,-23.85206c-0.11369,-7.52028 -0.23025,-15.29646 -2.85254,-21.65928c-2.74919,-6.6706 -8.2711,-12.45118 -13.61043,-18.04036c-6.53075,-6.83662 -12.69863,-13.29394 -12.69863,-19.92649c0,-6.63371 6.16845,-13.08987 12.69863,-19.92649c5.33988,-5.58919 10.86124,-11.36977 13.61043,-18.04036c2.62232,-6.36277 2.73943,-14.13899 2.85254,-21.65928c0.14581,-9.6854 0.28365,-18.8347 5.28075,-23.85206c4.99711,-5.01618 14.11054,-5.15455 23.75853,-5.30097c7.49079,-0.11414 15.23647,-0.23173 21.57434,-2.86377c6.64444,-2.76001 12.40177,-8.3031 17.96962,-13.66401c6.80981,-6.55646 13.24123,-12.74862 19.84835,-12.74862c6.60654,0 13.03796,6.19216 19.84777,12.74862c5.56727,5.3609 11.3246,10.904 17.96962,13.66401c6.33782,2.63204 14.08297,2.74963 21.57376,2.86377c9.64799,0.14639 18.76142,0.28476 23.7591,5.30097c4.99711,5.01736 5.13434,14.16667 5.28018,23.85206c0.11369,7.52028 0.23025,15.29646 2.85254,21.65928c2.74919,6.6706 8.2711,12.45118 13.61043,18.04036c6.53075,6.83662 12.69863,13.29394 12.69863,19.92649c0,6.63371 -6.16845,13.08987 -12.69863,19.92649l0,0.00002z"/>
 </g>
</svg>